<svg version="1.1" xmlns="http://www.w3.org/2000/svg" viewBox="0 0 345 75" class="looka-1j8o68f"><defs id="SvgjsDefs2269"></defs><g id="SvgjsG2270" featurekey="5TMTKC-0" transform="matrix(0.15000000596046448,0,0,0.15000000596046448,8.250000000000002,-22.050000000000004)" fill="#111111"><path xmlns="http://www.w3.org/2000/svg" d="M135.4,382.5c0,5.9,4.8,10.7,10.8,10.7s10.8-4.8,10.8-10.7s-4.8-10.7-10.8-10.7S135.4,376.6,135.4,382.5z M142.4,375.1  c2.1,0,3.7,1.7,3.7,3.7s-1.7,3.7-3.7,3.7c-2.1,0-3.7-1.7-3.7-3.7S140.3,375.1,142.4,375.1z"></path><path xmlns="http://www.w3.org/2000/svg" d="M233,382.5c0,5.9,4.8,10.7,10.8,10.7s10.8-4.8,10.8-10.7s-4.8-10.7-10.8-10.7C237.9,371.8,233,376.6,233,382.5z   M240.1,375.1c2.1,0,3.7,1.7,3.7,3.7s-1.7,3.7-3.7,3.7c-2.1,0-3.7-1.7-3.7-3.7S238,375.1,240.1,375.1z"></path><path xmlns="http://www.w3.org/2000/svg" d="M445,394.1C445,257.8,332.9,147,195,147S-55,257.8-55,394.1c0,93.3,52.6,174.7,130.1,216.7c1,4.4,2.2,8.7,3.7,13  c1.1,3.3,2.6,7.1,5.5,10c2.5,2.5,6.3,4.2,9.9,3.9c2.1,2.3,5.2,4.4,9,6.1c4.8,2.1,10,3.2,15,3.2c4,0,7.9-0.6,11.6-1.9  c4,0.6,15.8,1.4,21.9-7.6c14.1,2.5,28.5,3.7,43.3,3.7c14.8,0,29.3-1.3,43.3-3.7c6.1,9,17.9,8.2,21.9,7.6c3.7,1.3,7.6,1.9,11.6,1.9  c5.1,0,10.2-1.1,15-3.2c3.8-1.7,6.9-3.8,9-6.1c3.6,0.3,7.5-1.4,9.9-3.9c2.9-2.9,4.3-6.7,5.5-10c1.4-4.3,2.7-8.6,3.7-13  C392.4,568.8,445,487.4,445,394.1z M134,636.8c0.7-12.9-0.5-20.6-4.3-29.2c-1-2.2-3.5-3.2-5.7-2.2s-3.2,3.5-2.2,5.7  c3.3,7.6,4.3,14.2,3.5,26.4c-8.3,2.3-15.6-0.2-18.6-1.5c-4.3-1.9-6.3-4-6.6-4.7c-2.2-6.2-2.2-11.3-2.3-18.2v-1.4  c0-2.4-2-4.3-4.4-4.3s-4.3,2-4.3,4.4v1.4c0.1,5.2,0.1,9.6,1,14.3c-1.4-1.6-2.3-4.1-3-6.3c-3.9-11.3-6-23.3-6.5-35.4  c-0.1-2.3-1.9-4.1-4.2-4.1l-7.1-0.3c2-3.4,5.3-7.7,9.8-11.5c24.6-20.9,50.7-12.1,51-12c23.2,8.1,32.5,25.1,27.5,50.7  c-0.3,1.4-0.8,2.7-1.5,3.9c-0.7-6-2.6-12.4-6.9-17.7c-1.5-1.9-4.2-2.2-6.1-0.7c-1.9,1.5-2.2,4.2-0.7,6c5.6,6.9,5.5,17.2,5,22.7  c0,0.1,0,0.1,0,0.2c0,0.1,0,0.1,0,0.2c-0.1,3-1.2,6.8-2.7,9.3C142.3,636.2,137.4,636.9,134,636.8z M162.7,618  c1.6-2.3,2.8-4.9,3.4-7.9c5.7-29.6-6.1-51-33.2-60.5c-0.3-0.1-24-8-49,6.2c24.6-32.1,37.8-69.2,38.3-108.2c1.1,2.1,2.2,4.2,3.4,6.3  c2.9,5.1,5.6,9.8,6.5,14.9c1.4,7.6,7.3,22.4,20.9,29.3c4.3,2.2,8.9,3.3,13.7,3.6c4.9,7.4,15.6,12.4,28.3,12.4s23.4-5,28.3-12.4  c4.9-0.2,9.4-1.4,13.7-3.6c13.6-6.9,19.5-21.7,20.9-29.3c0.9-5.1,3.6-9.8,6.5-14.9c1.2-2.1,2.3-4.1,3.4-6.3  c0.5,39,13.6,76.1,38.3,108.2c-25-14.3-48.8-6.3-49-6.2c-27.1,9.4-38.9,30.9-33.2,60.5c0.6,3,1.8,5.6,3.4,7.9  c-10.5,1.5-21.3,2.3-32.3,2.3C184,620.2,173.3,619.5,162.7,618z M245,265.4c-0.6,18.4-1.2,37.5-10.9,52.4c-2,3.1-4.4,6-7,9  c-3.1,3.7-6.3,7.5-8.8,11.8c-7.5,12.8-18.6,51.6,19.4,76.1c7.3,4.7,16.3,6.8,26.2,6.1c-0.1,2.7-0.3,6.2-0.6,9.6c0,0.1,0,0.2,0,0.3  c0,0.1,0,0.3,0,0.4c0.5,6.3-2.9,12.2-6.5,18.5c-3.1,5.5-6.3,11.1-7.5,17.6c-1,5.7-5.7,17.8-16.3,23.2c-7.9,4-17.6,3.4-28.8-1.8  l-4.8-2.9v-16.5c1.3-0.4,2.5-0.9,3.7-1.6c8.6-5,18.9-13.1,18.9-23.2c0-4.8-1.3-8.4-3.9-10.9c-4.4-4.3-11.1-4.2-18.8-4  c-2.7,0.1-5.7,0.1-8.5,0c-7.7-0.1-14.4-0.3-18.8,4c-2.6,2.5-3.9,6.1-3.9,10.9c0,10,10.3,18.1,18.9,23.2c1.2,0.7,2.4,1.2,3.7,1.6  v16.5l-4.8,2.9c-11.2,5.2-20.9,5.8-28.8,1.8c-10.6-5.4-15.3-17.5-16.3-23.2c-1.2-6.5-4.4-12.2-7.5-17.6c-3.6-6.3-7-12.2-6.5-18.5  c0-0.1,0-0.3,0-0.4s0-0.2,0-0.3c-0.3-3.4-0.5-6.9-0.6-9.6c9.9,0.7,18.9-1.3,26.2-6.1c38-24.6,26.9-63.3,19.4-76.1  c-2.5-4.4-5.7-8.2-8.8-11.8c-2.6-3-5-5.9-7-9c-9.7-14.9-10.3-33.9-10.9-52.4c-0.1-4-0.3-8.2-0.5-12.3c9.1-6,17.5-10.7,26.4-10.4  c2.7,0.1,45.4,0.1,48.1,0c9-0.3,17.3,4.4,26.4,10.4C245.3,257.2,245.1,261.4,245,265.4z M254.4,354.8c9.2,2.9,13.6,14.4,10,25.7  c-3.7,11.2-14.1,17.9-23.3,15c-9.2-3-13.6-14.4-10-25.7C234.8,358.5,245.2,351.8,254.4,354.8z M212.4,500.6  c-4.1,2.9-10.4,4.9-17.4,4.9c-6.9,0-13.2-1.9-17.4-4.9c3.9-0.9,7.9-2.3,12.1-4.3c0.1-0.1,0.3-0.1,0.4-0.2l4.9-2.9l4.9,2.9  c0.1,0.1,0.3,0.1,0.4,0.2C204.4,498.3,208.5,499.7,212.4,500.6z M158.9,369.7c3.7,11.2-0.8,22.7-10,25.7c-9.2,2.9-19.6-3.8-23.3-15  s0.8-22.7,10-25.7C144.8,351.8,155.2,358.5,158.9,369.7z M303,621.1c-0.8,2.2-1.7,4.7-3,6.3c0.9-4.7,0.9-9.1,1-14.3v-1.4  c0-2.4-1.9-4.3-4.3-4.4c0,0,0,0-0.1,0c-2.4,0-4.3,1.9-4.4,4.3v1.4c-0.1,7-0.1,12-2.3,18.2c-0.3,0.7-2.3,2.9-6.6,4.7  c-2.9,1.3-10.2,3.8-18.6,1.5c-0.7-12.2,0.2-18.9,3.5-26.4c1-2.2,0-4.7-2.2-5.7s-4.8,0-5.7,2.2c-3.8,8.6-5,16.3-4.3,29.2  c-3.4,0.1-8.4-0.6-10.7-4.5c-1.5-2.5-2.6-6.3-2.7-9.3c0-0.1,0-0.1,0-0.2c0-0.1,0-0.1,0-0.2c-0.5-5.5-0.6-15.8,5-22.7  c1.5-1.9,1.2-4.6-0.7-6c-1.9-1.5-4.6-1.2-6.1,0.7c-4.3,5.3-6.2,11.7-6.9,17.7c-0.7-1.2-1.3-2.5-1.5-3.9  c-4.9-25.6,4.3-42.7,27.5-50.7c0.3-0.1,26.4-8.8,51,12c4.5,3.8,7.8,8.1,9.8,11.5l-7.1,0.3c-2.3,0.1-4.1,1.9-4.2,4.1  C309.1,597.8,306.9,609.7,303,621.1z M330.6,576.1c-1.5-4.9-4.2-9.7-8.3-14.2c-27.7-31.1-43.3-67.8-45.5-106.7c4.7,2.4,9,1.7,12,0.5  c18.8-7.5,31.1-52.9,31.8-59.6c1.3-12.7,8.5-47.1,12.7-66.5c3.2-14.9-3-30-15.9-38.3l-0.3-0.2c-8.3-5.4-20.8-13.5-40.7-32.9  c-6.8-6.7-16.5-11.2-25-11.7c-8.5-5.7-19.9-12.9-32.6-12.5c-2.4,0.1-45.1,0.1-47.6,0c-12.7-0.4-24.1,6.8-32.6,12.5  c-8.5,0.5-18.2,5-25,11.7c-19.9,19.4-32.4,27.5-40.7,32.9l-0.3,0.2c-12.9,8.4-19.2,23.4-15.9,38.3c4.2,19.4,11.4,53.8,12.7,66.5  c0.7,6.7,13,52.1,31.8,59.6c3,1.2,7.3,1.9,12-0.5c-2.2,38.9-17.9,75.6-45.5,106.7c-4.1,4.6-6.8,9.3-8.3,14.3  C2.9,535-33.8,468.7-33.8,394.2C-33.8,269.4,68.8,168,195,168s228.8,101.4,228.8,226.1C423.8,468.7,387.1,534.9,330.6,576.1z"></path></g><g id="SvgjsG2271" featurekey="7UBp9i-0" transform="matrix(4.053834438323975,0,0,4.053834438323975,90.9461654533081,-18.40375910018927)" fill="#111111"><path d="M1.26 20 c-0.14 0 -0.26 -0.12 -0.26 -0.26 l0 -11.98 c0 -0.14 0.12 -0.26 0.26 -0.26 l4.78 0 c1.32 0 2.2 0.28 2.98 0.86 c1.08 0.78 1.52 2.26 1.02 3.52 c-0.26 0.64 -0.7 0.98 -1.3 1.3 c0.86 0.12 1.4 0.68 1.72 1.08 c0.46 0.6 0.7 1.32 0.7 2.16 c0 1.1 -0.44 2 -1.28 2.64 c-0.82 0.62 -1.94 0.94 -3.32 0.94 l-5.3 0 z M3.94 12.08 l1.96 0 c0.4 0 0.72 -0.08 0.94 -0.26 c0.2 -0.18 0.3 -0.42 0.3 -0.74 c0 -0.3 -0.1 -0.54 -0.3 -0.7 c-0.2 -0.18 -0.5 -0.26 -0.86 -0.26 l-2.04 0 l0 1.96 z M3.94 17.54 l2.34 0 c0.6 0 1.06 -0.12 1.4 -0.36 c0.3 -0.22 0.46 -0.52 0.46 -0.94 c0 -0.38 -0.16 -0.66 -0.46 -0.88 c-0.32 -0.22 -0.76 -0.34 -1.32 -0.34 l-2.42 0 l0 2.52 z M13.02 20 c-0.08 0 -0.16 -0.04 -0.2 -0.12 c-0.06 -0.06 -0.06 -0.16 -0.04 -0.24 l4.66 -11.98 c0.04 -0.1 0.14 -0.16 0.24 -0.16 l2.68 0 c0.1 0 0.2 0.06 0.24 0.16 l4.58 11.98 c0.02 0.08 0.02 0.16 -0.04 0.24 c-0.04 0.08 -0.12 0.12 -0.2 0.12 l-2.78 0 c-0.1 0 -0.2 -0.06 -0.24 -0.16 l-0.74 -1.84 l-4.5 0.02 l-0.74 1.82 c-0.04 0.1 -0.14 0.16 -0.24 0.16 l-2.68 0 z M17.5 15.5 l2.88 0 l-1.44 -4.24 z M27.26 20 c-0.16 0 -0.26 -0.12 -0.26 -0.26 l0 -11.98 c0 -0.14 0.1 -0.26 0.26 -0.26 l4.88 0 c1.52 0 2.72 0.38 3.56 1.16 c1.24 1.12 1.66 3.24 1.06 4.8 c-0.22 0.56 -0.6 1.08 -1.08 1.46 c-0.28 0.22 -0.58 0.38 -0.88 0.54 c0.86 1.36 2.16 4.12 2.16 4.12 c0.02 0.04 0.06 0.1 0.06 0.16 c0 0.14 -0.12 0.26 -0.26 0.26 l-2.96 0 c-0.08 0 -0.18 -0.06 -0.22 -0.14 l-1.74 -3.82 c-0.62 0.04 -1.1 0.02 -1.74 0.02 l0 3.68 c0 0.14 -0.12 0.26 -0.26 0.26 l-2.58 0 z M30.1 13.280000000000001 c0 0 2.52 0.28 3.4 -0.3 c0.34 -0.22 0.54 -0.76 0.54 -1.16 c-0.02 -0.44 -0.24 -0.9 -0.6 -1.18 c-0.38 -0.32 -1.32 -0.42 -1.8 -0.42 l-1.54 0.04 l0 3.02 z M39.3 20 c-0.14 0 -0.26 -0.12 -0.26 -0.26 l0 -11.98 c0 -0.14 0.12 -0.26 0.26 -0.26 l2.6 0 c0.14 0 0.26 0.12 0.26 0.26 l0 3.54 l3.62 -3.72 c0.06 -0.04 0.12 -0.08 0.2 -0.08 l3.02 0 c0.1 0 0.2 0.06 0.24 0.14 c0.04 0.1 0.02 0.2 -0.04 0.28 l-4.04 4.32 l4.5 7.34 c0.04 0.04 0.06 0.1 0.06 0.16 c0 0.14 -0.12 0.26 -0.26 0.26 l-3.12 0 c-0.08 0 -0.16 -0.04 -0.2 -0.12 l-3.3 -5.58 l-0.68 0.6 l0 4.84 c0 0.14 -0.12 0.26 -0.26 0.26 l-2.6 0 z  M55.62 20 c-0.14 0 -0.24 -0.12 -0.24 -0.26 l0 -4.76 l-4.24 -7.1 c-0.04 -0.08 -0.04 -0.18 0.02 -0.26 c0.04 -0.08 0.12 -0.12 0.22 -0.12 l2.6 0 c0.1 0 0.18 0.04 0.22 0.14 l2.72 4.44 l2.66 -4.44 c0.04 -0.08 0.12 -0.14 0.22 -0.14 l2.62 0 c0.08 0 0.18 0.04 0.22 0.12 s0.04 0.18 0 0.26 l-4.16 7.02 l0 4.84 c0 0.14 -0.12 0.26 -0.26 0.26 l-2.6 0 z"></path></g></svg>