<svg version="1.1" xmlns="http://www.w3.org/2000/svg" class="sparkles" viewBox="0 0 24 23" style="width:100%;height:100%;display:block;fill:inherit;flex-shrink:0"><g><path d="M10.4563 5.72844C10.9113 5.57094 10.9113 5.29094 10.4563 5.11594L7.98881 4.17094C7.55131 4.01344 7.04381 3.50594 6.86881 3.05094L5.92381 0.583437C5.76631 0.128438 5.48631 0.128438 5.31131 0.583437L4.36631 3.05094C4.20881 3.48844 3.70131 3.99594 3.24631 4.17094L0.778811 5.11594C0.323811 5.27344 0.323811 5.55344 0.778811 5.72844L3.24631 6.67344C3.68381 6.83094 4.19131 7.33844 4.36631 7.79344L5.31131 10.2609C5.46881 10.7159 5.74881 10.7159 5.92381 10.2609L6.86881 7.79344C7.02631 7.35594 7.53381 6.84844 7.98881 6.67344L10.4563 5.72844Z" fill="currentColor"></path><path d="M22.4788 14.3734C23.8788 14.0234 23.8788 13.4459 22.4788 13.0959L19.3813 12.3259C17.9813 11.9759 16.5463 10.5409 16.1963 9.14091L15.4263 6.04341C15.0763 4.64341 14.4988 4.64341 14.1488 6.04341L13.3788 9.14091C13.0288 10.5409 11.5938 11.9759 10.1938 12.3259L7.09631 13.0959C5.69631 13.4459 5.69631 14.0234 7.09631 14.3734L10.1938 15.1434C11.5938 15.4934 13.0288 16.9284 13.3788 18.3284L14.1488 21.4259C14.4988 22.8259 15.0763 22.8259 15.4263 21.4259L16.1963 18.3284C16.5463 16.9284 17.9813 15.4934 19.3813 15.1434L22.4788 14.3734Z" fill="currentColor"></path></g></svg>