<svg version="1.1" xmlns="http://www.w3.org/2000/svg"  width="48" height="48" viewBox="0 0 48 48" fill="none"><g><path d="M37.3284 4H10.6674C6.98444 4 4 6.98444 4 10.6674V37.3326C4 41.0156 6.98444 44 10.6674 44H37.3326C41.0154 44 44 41.0156 44 37.3326V10.6674C44 6.98444 41.0154 4 37.3326 4H37.3284ZM36.2784 39.864H11.7215C9.73606 39.864 8.12742 38.2554 8.12742 36.27V14.9684H39.8726V36.2742C39.8726 38.2596 38.2638 39.8682 36.2784 39.8682V39.864Z" fill="currentColor"></path><g class="NotionCalendarIcon_dates__QiFn_" fill="currentColor"><g class=""><path d="M19.1302 24.3266C19.1302 22.8208 18.2734 21.8342 16.9232 21.8342C15.6251 21.8342 15.1837 22.7688 15.1837 24.2488V24.5084C15.0279 24.5344 14.8981 24.5604 14.7423 24.5604C13.8076 24.5604 13.1325 23.7814 13.1325 22.4572C13.1325 20.4321 15.0019 18.6406 18.559 18.6406C21.7266 18.6406 23.7517 20.2504 23.7517 22.8728C23.7517 24.846 22.0641 26.1442 20.4024 26.4816C23.5181 26.8192 24.8162 28.5848 24.8162 30.7398C24.8162 34.4266 22.0381 36.348 17.7541 36.348H17.6502C14.4307 36.348 12.1719 35.0238 12.1719 32.9726C12.1719 31.8042 13.0547 30.8696 14.3788 30.8696C14.4826 30.8696 14.5865 30.8956 14.6904 30.8956C14.95 32.9986 16.404 33.8554 17.8579 33.8554C19.26 33.8554 20.2466 32.9986 20.2466 31.7004V31.6486C20.2466 29.6234 18.507 29.4156 15.8847 29.156L15.4693 26.7154C17.9099 26.4298 19.1302 25.7288 19.1302 24.3266Z"></path><path d="M29.0308 33.6478V21.5486C26.4344 22.1198 25.8632 20.9774 26.1488 19.8349C27.7068 19.5753 31.757 18.6406 33.289 18.1992V33.7516L36.119 34.3228C36.119 35.3354 35.5218 35.9326 34.4574 35.9326C33.5746 35.9326 31.5234 35.8806 30.5368 35.8806C29.005 35.8806 26.2008 35.9326 26.2008 35.9326C26.123 35.7248 26.097 35.5172 26.097 35.3354C26.097 34.842 26.3046 34.3488 26.9798 34.167L29.0308 33.6478Z"></path></g><g class=""><path d="M17.6536 24.3462C17.6536 22.8404 16.7968 21.8537 15.4467 21.8537C14.1485 21.8537 13.7071 22.7884 13.7071 24.2684V24.528C13.5513 24.554 13.4215 24.5798 13.2657 24.5798C12.331 24.5798 11.656 23.801 11.656 22.4768C11.656 20.4517 13.5254 18.6602 17.0824 18.6602C20.25 18.6602 22.2752 20.2699 22.2752 22.8922C22.2752 24.8656 20.5875 26.1636 18.9258 26.5012C22.0415 26.8388 23.3397 28.6042 23.3397 30.7594C23.3397 34.4462 20.5616 36.3674 16.2775 36.3674H16.1737C12.9542 36.3674 10.6953 35.0434 10.6953 32.9922C10.6953 31.8238 11.5781 30.8892 12.9022 30.8892C13.0061 30.8892 13.1099 30.915 13.2138 30.915C13.4734 33.0182 14.9274 33.875 16.3814 33.875C17.7834 33.875 18.7701 33.0182 18.7701 31.72V31.668C18.7701 29.6428 17.0305 29.4352 14.4081 29.1756L13.9927 26.735C16.4333 26.4492 17.6536 25.7482 17.6536 24.3462Z"></path><path d="M31.2253 18.5195C35.2575 18.5195 37.5493 21.0095 37.5493 27.0116C37.5493 32.8566 35.0877 36.3948 30.6523 36.3948C26.6201 36.3948 24.3281 33.905 24.3281 27.9028C24.3281 22.0578 26.7899 18.5195 31.2253 18.5195ZM30.6947 21.0881C28.7847 21.0881 28.1269 23.5518 28.1269 26.7758C28.1269 30.55 29.1879 33.8 31.1829 33.8C33.0927 33.8 33.7507 31.3626 33.7507 28.1386C33.7507 24.3644 32.6895 21.0881 30.6947 21.0881Z"></path></g><g class=""><path d="M17.7571 24.3346C17.7571 22.8286 16.9003 21.842 15.5502 21.842C14.1741 21.842 13.7587 22.8806 13.8106 24.5162C12.6422 24.7758 11.7595 23.997 11.7595 22.4652C11.7595 20.4399 13.5769 18.6484 17.3157 18.6484C20.4833 18.6484 22.6643 20.5957 22.6643 23.0882C22.6643 25.6846 21.2622 27.502 17.6533 30.7736L15.706 32.539C19.315 32.617 21.7036 32.4352 22.8201 31.7602C23.2874 32.2016 23.5471 32.8246 23.5471 33.6036C23.5471 35.1874 21.7555 36.0962 19.964 36.0962C18.2245 36.0962 11.1883 35.8884 11.1883 35.8884L10.7988 34.4084L14.226 30.384C16.5628 27.632 17.7571 26.152 17.7571 24.3346Z"></path><path d="M30.1907 33.6161C31.9019 33.5265 32.7319 32.0011 32.8827 29.4191C28.4567 31.2891 24.5051 29.3123 24.2919 25.2415C24.0839 21.2745 26.4659 18.6017 30.3291 18.3993C34.5813 18.1764 36.9621 20.9376 37.2107 25.6823C37.5287 31.7497 35.1969 35.8757 30.0891 36.1435C26.8221 36.3147 24.7823 35.0955 24.6735 33.0213C24.6069 31.7509 25.5939 30.7371 27.0799 30.8153C27.4493 32.9019 28.8165 33.6881 30.1907 33.6161ZM28.2701 23.2651C28.4033 25.8059 30.1551 27.9761 32.9157 27.5715C32.9089 27.4419 32.8995 27.2603 32.8913 27.1047C32.6929 23.3193 31.3685 20.8667 29.8387 20.9469C28.8793 20.9972 28.1913 21.7612 28.2701 23.2651Z"></path></g><g class=""><path d="M17.4564 24.3256C17.4564 22.8198 16.5996 21.8332 15.2494 21.8332C13.8733 21.8332 13.4579 22.8718 13.5099 24.5074C12.3415 24.767 11.4587 23.9882 11.4587 22.4562C11.4587 20.4312 13.2762 18.6396 17.015 18.6396C20.1825 18.6396 22.3635 20.5869 22.3635 23.0794C22.3635 25.6758 20.9615 27.4932 17.3525 30.7648L15.4052 32.5302C19.0142 32.6082 21.4028 32.4264 22.5193 31.7514C22.9866 32.1928 23.2463 32.8158 23.2463 33.5948C23.2463 35.1786 21.4548 36.0874 19.6633 36.0874C17.9237 36.0874 10.8875 35.8796 10.8875 35.8796L10.498 34.3996L13.9253 30.3752C16.262 27.6232 17.4564 26.1432 17.4564 24.3256Z"></path><path d="M37.2104 31.1022C37.2104 34.192 34.4583 36.347 30.5637 36.347C26.0461 36.347 24.0469 34.2438 24.0469 31.9072C24.0469 29.9338 25.2931 28.376 27.1885 27.5972C25.4489 26.1692 24.9037 25.0268 24.9037 23.5208C24.9037 20.9764 26.8509 18.6396 30.9013 18.6396C34.3805 18.6396 36.2758 20.4052 36.2758 22.612C36.2758 24.5854 35.1075 25.7278 33.7833 26.5326C36.3796 28.1424 37.2104 29.3886 37.2104 31.1022ZM32.9265 23.2872C32.9265 21.8851 31.9659 21.0024 30.5119 21.0024C29.2137 21.0024 28.7203 21.6774 28.7203 22.4562C28.7203 23.1574 28.9799 23.6766 30.2263 24.4296L32.1475 25.598C32.7187 24.819 32.9265 24.17 32.9265 23.2872ZM32.7967 32.4004C32.7967 31.6476 32.3033 31.1022 30.6417 30.0638L28.8761 28.9472C28.0971 29.7522 27.8115 30.505 27.8115 31.4398C27.8115 33.0756 28.9799 33.8544 30.8235 33.8544C32.0437 33.8544 32.7967 33.3092 32.7967 32.4004Z"></path></g><g class=""><path d="M18.4427 24.3256C18.4427 22.8198 17.5859 21.8332 16.2357 21.8332C14.8597 21.8332 14.4442 22.8718 14.4962 24.5074C13.3278 24.767 12.445 23.9882 12.445 22.4562C12.445 20.4312 14.2625 18.6396 18.0013 18.6396C21.1689 18.6396 23.3498 20.5869 23.3498 23.0794C23.3498 25.6758 21.9478 27.4932 18.3388 30.7648L16.3915 32.5302C20.0005 32.6082 22.3892 32.4264 23.5056 31.7514C23.973 32.1928 24.2327 32.8158 24.2327 33.5948C24.2327 35.1786 22.4411 36.0874 20.6496 36.0874C18.91 36.0874 11.8738 35.8796 11.8738 35.8796L11.4844 34.3996L14.9116 30.3752C17.2483 27.6232 18.4427 26.1432 18.4427 24.3256Z"></path><path d="M36.8203 19.0036C34.8469 22.6125 31.4197 30.7133 29.9399 36.3475H29.7321C27.7329 36.3475 26.2789 35.2051 26.2789 33.2837C26.2789 32.2971 26.6165 31.1287 27.3435 29.8045C27.8887 28.8179 28.6417 27.7793 29.3687 26.7667L32.2765 22.6905C31.2381 22.8463 29.4725 23.0539 27.7329 23.0539C25.7597 23.0539 24.4355 22.0154 24.4355 20.3018C24.4355 19.8604 24.5393 19.3411 24.7471 18.7959C26.1231 19.0036 29.1869 19.0815 31.9391 19.0815C33.8603 19.0815 35.8595 19.0555 36.8203 19.0036Z"></path></g><g class=""><path d="M30.9876 21.1326C29.0404 21.1326 28.3654 23.002 28.2614 26.3254C32.831 24.6116 36.8554 26.0138 36.8554 30.09C36.8554 33.8288 34.337 36.3474 30.5462 36.3474C25.5873 36.3474 23.8477 32.8162 23.8477 28.5322C23.8477 22.7422 26.3403 18.64 30.9616 18.64C34.2332 18.6141 36.2064 19.9382 36.2064 22.0153C36.2064 23.2876 35.1678 24.2482 33.688 24.0924C33.4282 22.171 32.3638 21.1326 30.9876 21.1326ZM32.8052 31.596C32.8052 29.0516 31.0136 27.7792 28.2354 28.1168C28.3654 31.7518 29.5078 33.8288 30.9616 33.8288C31.9224 33.8288 32.8052 33.1018 32.8052 31.596Z"></path><path d="M17.6731 24.3256C17.6731 22.8198 16.8164 21.8332 15.4662 21.8332C14.0901 21.8332 13.6747 22.8718 13.7267 24.5074C12.5583 24.767 11.6755 23.9882 11.6755 22.4562C11.6755 20.4312 13.493 18.6396 17.2318 18.6396C20.3993 18.6396 22.5803 20.5869 22.5803 23.0794C22.5803 25.6758 21.1783 27.4932 17.5693 30.7648L15.622 32.5302C19.231 32.6082 21.6197 32.4264 22.7361 31.7514C23.2034 32.1928 23.4631 32.8158 23.4631 33.5948C23.4631 35.1786 21.6716 36.0874 19.8801 36.0874C18.1405 36.0874 11.1043 35.8796 11.1043 35.8796L10.7148 34.3996L14.1421 30.3752C16.4788 27.6232 17.6731 26.1432 17.6731 24.3256Z"></path></g><g class=""><path d="M17.8177 24.3256C17.8177 22.8198 16.9609 21.8332 15.6108 21.8332C14.2347 21.8332 13.8192 22.8718 13.8712 24.5074C12.7028 24.767 11.8201 23.9882 11.8201 22.4562C11.8201 20.4312 13.6375 18.6396 17.3763 18.6396C20.5439 18.6396 22.7249 20.5869 22.7249 23.0794C22.7249 25.6758 21.3228 27.4932 17.7138 30.7648L15.7665 32.5302C19.3755 32.6082 21.7642 32.4264 22.8806 31.7514C23.348 32.1928 23.6076 32.8158 23.6076 33.5948C23.6076 35.1786 21.8161 36.0874 20.0246 36.0874C18.285 36.0874 11.2488 35.8796 11.2488 35.8796L10.8594 34.3996L14.2866 30.3752C16.6233 27.6232 17.8177 26.1432 17.8177 24.3256Z"></path><path d="M36.8185 30.375C36.8445 34.2956 34.2221 36.3468 29.8083 36.3468C26.5367 36.3728 24.252 35.0486 24.252 32.9714C24.252 31.6992 25.2906 30.7386 26.7705 30.8944C27.0301 32.9974 28.4321 33.8542 29.8861 33.8542C31.2621 33.8542 32.3267 32.9974 32.3267 31.6992C32.3267 29.3624 30.0419 28.246 25.5761 28.7394V19.003H31.3141C32.6901 19.003 33.9625 18.9251 35.2087 18.6914C35.4423 19.0809 35.5981 19.6001 35.5981 20.1454C35.5981 21.6772 34.4039 23.0793 31.9891 23.0793C30.3795 23.0793 28.9773 22.8975 27.8089 22.7159V25.3901C33.5989 24.5073 36.8185 26.4027 36.8185 30.375Z"></path></g><g class=""><path d="M17.8079 24.3256C17.8079 22.8198 16.9511 21.8332 15.601 21.8332C14.2249 21.8332 13.8095 22.8718 13.8614 24.5074C12.693 24.767 11.8103 23.9882 11.8103 22.4562C11.8103 20.4312 13.6277 18.6396 17.3665 18.6396C20.5341 18.6396 22.7151 20.5869 22.7151 23.0794C22.7151 25.6758 21.313 27.4932 17.7041 30.7648L15.7568 32.5302C19.3657 32.6082 21.7544 32.4264 22.8708 31.7514C23.3382 32.1928 23.5978 32.8158 23.5978 33.5948C23.5978 35.1786 21.8063 36.0874 20.0148 36.0874C18.2753 36.0874 11.2391 35.8796 11.2391 35.8796L10.8496 34.3996L14.2768 30.3752C16.6136 27.6232 17.8079 26.1432 17.8079 24.3256Z"></path><path d="M37.1196 29.9599C37.8466 30.9725 37.6648 33.3093 35.1204 33.1275L35.1464 33.5689C35.2762 35.8019 34.1858 36.3471 32.6278 36.3471C32.0048 36.3471 31.2778 36.1913 30.6806 35.8797L30.7584 33.0497H24.631L23.8262 30.8167C25.2282 27.2857 28.7334 21.2621 30.7844 18.7695L35.1204 19.4446V30.2195C35.8994 30.2195 36.4706 30.1417 37.1196 29.9599ZM30.8624 22.1189C29.4862 24.0661 27.2014 28.2463 26.3446 30.3495H30.8624V22.1189Z"></path></g><g class=""><path d="M31.2846 24.3256C31.2846 22.8198 30.4278 21.8332 29.0776 21.8332C27.7794 21.8332 27.338 22.7678 27.338 24.2478V24.5074C27.1822 24.5334 27.0524 24.5594 26.8966 24.5594C25.962 24.5594 25.2868 23.7804 25.2868 22.4562C25.2868 20.4312 27.1562 18.6396 30.7134 18.6396C33.881 18.6396 35.9061 20.2494 35.9061 22.8718C35.9061 24.845 34.2184 26.1432 32.5568 26.4806C35.6723 26.8182 36.9705 28.5838 36.9705 30.7388C36.9705 34.4256 34.1924 36.347 29.9084 36.347H29.8046C26.585 36.347 24.3262 35.0228 24.3262 32.9716C24.3262 31.8032 25.209 30.8686 26.5332 30.8686C26.637 30.8686 26.7408 30.8946 26.8448 30.8946C27.1044 32.9976 28.5584 33.8544 30.0124 33.8544C31.4144 33.8544 32.401 32.9976 32.401 31.6994V31.6476C32.401 29.6224 30.6614 29.4146 28.039 29.155L27.6236 26.7144C30.0642 26.4288 31.2846 25.7278 31.2846 24.3256Z"></path><path d="M17.8919 24.3256C17.8919 22.8198 17.0351 21.8332 15.685 21.8332C14.3089 21.8332 13.8935 22.8718 13.9454 24.5074C12.777 24.767 11.8943 23.9882 11.8943 22.4562C11.8943 20.4312 13.7117 18.6396 17.4505 18.6396C20.6181 18.6396 22.799 20.5869 22.799 23.0794C22.799 25.6758 21.397 27.4932 17.788 30.7648L15.8407 32.5302C19.4497 32.6082 21.8384 32.4264 22.9548 31.7514C23.4222 32.1928 23.6818 32.8158 23.6818 33.5948C23.6818 35.1786 21.8903 36.0874 20.0988 36.0874C18.3592 36.0874 11.323 35.8796 11.323 35.8796L10.9336 34.3996L14.3608 30.3752C16.6976 27.6232 17.8919 26.1432 17.8919 24.3256Z"></path></g><g class=""><path d="M31.3158 24.3256C31.3158 22.8198 30.4588 21.8332 29.1088 21.8332C27.7326 21.8332 27.3172 22.8718 27.3692 24.5074C26.2008 24.767 25.318 23.9882 25.318 22.4562C25.318 20.4312 27.1356 18.6396 30.8744 18.6396C34.042 18.6396 36.2228 20.5869 36.2228 23.0794C36.2228 25.6758 34.8208 27.4932 31.2118 30.7648L29.2646 32.5302C32.8736 32.6082 35.2622 32.4264 36.3786 31.7514C36.846 32.1928 37.1056 32.8158 37.1056 33.5948C37.1056 35.1786 35.3142 36.0874 33.5226 36.0874C31.783 36.0874 24.7468 35.8796 24.7468 35.8796L24.3574 34.3996L27.7846 30.3752C30.1214 27.6232 31.3158 26.1432 31.3158 24.3256Z"></path><path d="M18.1302 24.3256C18.1302 22.8198 17.2734 21.8332 15.9233 21.8332C14.5472 21.8332 14.1317 22.8718 14.1837 24.5074C13.0153 24.767 12.1326 23.9882 12.1326 22.4562C12.1326 20.4312 13.95 18.6396 17.6888 18.6396C20.8564 18.6396 23.0374 20.5869 23.0374 23.0794C23.0374 25.6758 21.6353 27.4932 18.0263 30.7648L16.079 32.5302C19.688 32.6082 22.0767 32.4264 23.1931 31.7514C23.6605 32.1928 23.9201 32.8158 23.9201 33.5948C23.9201 35.1786 22.1286 36.0874 20.3371 36.0874C18.5975 36.0874 11.5613 35.8796 11.5613 35.8796L11.1719 34.3996L14.5991 30.3752C16.9358 27.6232 18.1302 26.1432 18.1302 24.3256Z"></path></g><g class=""><path d="M19.0481 24.3266C19.0481 22.8208 18.1914 21.8342 16.8412 21.8342C15.4652 21.8342 15.0497 22.8728 15.1017 24.5084C13.9333 24.768 13.0505 23.9892 13.0505 22.4572C13.0505 20.4321 14.868 18.6406 18.6068 18.6406C21.7744 18.6406 23.9553 20.5879 23.9553 23.0804C23.9553 25.6768 22.5533 27.4942 18.9443 30.7658L16.997 32.5312C20.606 32.6092 22.9947 32.4274 24.1111 31.7524C24.5785 32.1938 24.8381 32.8168 24.8381 33.5958C24.8381 35.1796 23.0466 36.0884 21.2551 36.0884C19.5155 36.0884 12.4793 35.8806 12.4793 35.8806L12.0898 34.4006L15.5171 30.3762C17.8538 27.6242 19.0481 26.1442 19.0481 24.3266Z"></path><path d="M29.064 33.6478V21.5486C26.4676 22.1198 25.8964 20.9774 26.182 19.8349C27.7398 19.5753 31.7902 18.6406 33.3222 18.1992V33.7516L36.1522 34.3228C36.1522 35.3354 35.555 35.9326 34.4906 35.9326C33.6078 35.9326 31.5566 35.8806 30.57 35.8806C29.038 35.8806 26.234 35.9326 26.234 35.9326C26.156 35.7248 26.1302 35.5172 26.1302 35.3354C26.1302 34.842 26.3378 34.3488 27.013 34.167L29.064 33.6478Z"></path></g><g class=""><path d="M17.8509 24.3346C17.8509 22.8286 16.9941 21.842 15.644 21.842C14.2679 21.842 13.8525 22.8806 13.9044 24.5162C12.736 24.7758 11.8533 23.997 11.8533 22.4652C11.8533 20.4399 13.6707 18.6484 17.4095 18.6484C20.5771 18.6484 22.7581 20.5957 22.7581 23.0882C22.7581 25.6846 21.356 27.502 17.747 30.7736L15.7997 32.539C19.4087 32.617 21.7974 32.4352 22.9138 31.7602C23.3812 32.2016 23.6408 32.8246 23.6408 33.6036C23.6408 35.1874 21.8493 36.0962 20.0578 36.0962C18.3182 36.0962 11.282 35.8884 11.282 35.8884L10.8926 34.4084L14.3198 30.384C16.6565 27.632 17.8509 26.152 17.8509 24.3346Z"></path><path d="M31.0163 18.459C35.0485 18.459 37.3405 20.949 37.3405 26.9511C37.3405 32.7961 34.8787 36.3343 30.4433 36.3343C26.4111 36.3343 24.1191 33.8445 24.1191 27.8423C24.1191 21.9974 26.5809 18.459 31.0163 18.459ZM30.4857 21.0276C28.5757 21.0276 27.9179 23.4913 27.9179 26.7153C27.9179 30.4895 28.9789 33.7395 30.9739 33.7395C32.8839 33.7395 33.5417 31.3021 33.5417 28.0781C33.5417 24.3039 32.4807 21.0276 30.4857 21.0276Z"></path></g><g class=""><path d="M15.2808 33.6478V21.5486C12.6844 22.1198 12.1132 20.9774 12.3988 19.8349C13.9566 19.5753 18.007 18.6406 19.5388 18.1992V33.7516L22.3689 34.3228C22.3689 35.3354 21.7717 35.9326 20.7072 35.9326C19.8244 35.9326 17.7733 35.8806 16.7867 35.8806C15.2548 35.8806 12.4507 35.9326 12.4507 35.9326C12.3728 35.7248 12.3469 35.5172 12.3469 35.3354C12.3469 34.842 12.5546 34.3488 13.2296 34.167L15.2808 33.6478Z"></path><path d="M29.3363 33.5738C31.0683 33.483 31.9083 31.939 32.0609 29.326C27.5815 31.2184 23.5822 29.2178 23.3663 25.0978C23.1558 21.0828 25.5665 18.3777 29.4765 18.1728C33.7801 17.9473 36.1897 20.7418 36.4413 25.544C36.7631 31.6846 34.4033 35.8606 29.2335 36.1316C25.9271 36.3048 23.8626 35.071 23.7526 32.9716C23.6852 31.6858 24.6839 30.6598 26.1881 30.739C26.5619 32.8508 27.9455 33.6466 29.3363 33.5738ZM27.3927 23.0974C27.5275 25.6692 29.3003 27.8656 32.0945 27.456C32.0875 27.3248 32.0779 27.141 32.0697 26.9836C31.8689 23.1522 30.5283 20.6701 28.9801 20.7513C28.0091 20.8022 27.3129 21.5754 27.3927 23.0974Z"></path></g><g class=""><path d="M14.8745 33.6478V21.5486C12.2781 22.1198 11.7069 20.9774 11.9925 19.8349C13.5503 19.5753 17.6007 18.6406 19.1326 18.1992V33.7516L21.9626 34.3228C21.9626 35.3354 21.3655 35.9326 20.301 35.9326C19.4182 35.9326 17.367 35.8806 16.3804 35.8806C14.8485 35.8806 12.0444 35.9326 12.0444 35.9326C11.9665 35.7248 11.9406 35.5172 11.9406 35.3354C11.9406 34.842 12.1483 34.3488 12.8234 34.167L14.8745 33.6478ZM14.8745 33.6478V21.5486C12.2781 22.1198 11.7069 20.9774 11.9925 19.8349C13.5503 19.5753 17.6007 18.6406 19.1326 18.1992V33.7516L21.9626 34.3228C21.9626 35.3354 21.3655 35.9326 20.301 35.9326C19.4182 35.9326 17.367 35.8806 16.3804 35.8806C14.8485 35.8806 12.0444 35.9326 12.0444 35.9326M14.8745 33.6478V21.5486C12.2781 22.1198 11.7069 20.9774 11.9925 19.8349C13.5503 19.5753 17.6007 18.6406 19.1326 18.1992V33.7516L21.9626 34.3228M14.8745 33.6478V21.5486C12.2781 22.1198 11.7069 20.9774 11.9925 19.8349C13.5503 19.5753 17.6007 18.6406 19.1326 18.1992V33.7516L21.9626 34.3228"></path><path d="M29.5834 36.348C33.478 36.348 36.23 34.193 36.23 31.1032C36.23 29.3896 35.3992 28.1434 32.8028 26.5336C34.127 25.7288 35.2954 24.5864 35.2954 22.613C35.2954 20.4062 33.4 18.6406 29.9208 18.6406C25.8704 18.6406 23.9232 20.9774 23.9232 23.5218C23.9232 25.0278 24.4684 26.1702 26.208 27.5982C24.3126 28.377 23.0664 29.9348 23.0664 31.9082C23.0664 34.2448 25.0656 36.348 29.5834 36.348ZM29.5318 21.0029C30.9858 21.0029 31.9464 21.8857 31.9464 23.2878C31.9464 24.1706 31.7388 24.8196 31.1676 25.5986L29.2462 24.4302C28 23.6772 27.7402 23.158 27.7402 22.4568C27.7402 21.678 28.2336 21.0029 29.5318 21.0029ZM31.817 32.4014C31.817 33.3102 31.064 33.8554 29.8438 33.8554C28.0004 33.8554 26.832 33.0766 26.832 31.4408C26.832 30.506 27.1176 29.7532 27.8964 28.9482L29.662 30.0648C31.3238 31.1032 31.817 31.6486 31.817 32.4014Z"></path></g><g class=""><path d="M16.3725 33.6478V21.5486C13.7762 22.1198 13.205 20.9774 13.4906 19.8349C15.0484 19.5753 19.0988 18.6406 20.6306 18.1992V33.7516L23.4607 34.3228C23.4607 35.3354 22.8635 35.9326 21.799 35.9326C20.9162 35.9326 18.8651 35.8806 17.8785 35.8806C16.3466 35.8806 13.5425 35.9326 13.5425 35.9326C13.4646 35.7248 13.4387 35.5172 13.4387 35.3354C13.4387 34.842 13.6464 34.3488 14.3214 34.167L16.3725 33.6478ZM16.3725 33.6478V21.5486C13.7762 22.1198 13.205 20.9774 13.4906 19.8349C15.0484 19.5753 19.0988 18.6406 20.6306 18.1992V33.7516L23.4607 34.3228C23.4607 35.3354 22.8635 35.9326 21.799 35.9326C20.9162 35.9326 18.8651 35.8806 17.8785 35.8806C16.3466 35.8806 13.5425 35.9326 13.5425 35.9326C13.4646 35.7248 13.4387 35.5172 13.4387 35.3354C13.4387 34.842 13.6464 34.3488 14.3214 34.167L16.3725 33.6478Z"></path><path d="M29.2172 36.3475C30.6972 30.7133 34.1244 22.6125 36.0976 19.0036C35.137 19.0555 33.1378 19.0815 31.2164 19.0815C28.4642 19.0815 25.4004 19.0036 24.0245 18.7959C23.8167 19.3411 23.7129 19.8604 23.7129 20.3018C23.7129 22.0154 25.037 23.0539 27.0102 23.0539C28.7498 23.0539 30.5154 22.8463 31.554 22.6905L28.646 26.7667C27.919 27.7793 27.166 28.8179 26.6208 29.8045C25.8938 31.1287 25.5562 32.2971 25.5562 33.2837C25.5562 35.2051 27.0102 36.3475 29.0094 36.3475H29.2172Z"></path></g><g class=""><path d="M15.0835 33.6478V21.5486C12.4871 22.1198 11.9159 20.9774 12.2015 19.8349C13.7593 19.5753 17.8097 18.6406 19.3416 18.1992V33.7516L22.1716 34.3228C22.1716 35.3354 21.5745 35.9326 20.5099 35.9326C19.6272 35.9326 17.576 35.8806 16.5894 35.8806C15.0575 35.8806 12.2534 35.9326 12.2534 35.9326C12.1756 35.7248 12.1496 35.5172 12.1496 35.3354C12.1496 34.842 12.3573 34.3488 13.0324 34.167L15.0835 33.6478ZM15.0835 33.6478V21.5486C12.4871 22.1198 11.9159 20.9774 12.2015 19.8349C13.7593 19.5753 17.8097 18.6406 19.3416 18.1992V33.7516L22.1716 34.3228C22.1716 35.3354 21.5745 35.9326 20.5099 35.9326C19.6272 35.9326 17.576 35.8806 16.5894 35.8806C15.0575 35.8806 12.2534 35.9326 12.2534 35.9326M15.0835 33.6478V21.5486C12.4871 22.1198 11.9159 20.9774 12.2015 19.8349C13.7593 19.5753 17.8097 18.6406 19.3416 18.1992"></path><path d="M29.9839 21.1335C28.0365 21.1335 27.3615 23.003 27.2577 26.3264C31.8273 24.6126 35.8517 26.0148 35.8517 30.091C35.8517 33.8298 33.3331 36.3484 29.5425 36.3484C24.5833 36.3484 22.8438 32.8172 22.8438 28.5332C22.8438 22.7432 25.3363 18.641 29.9579 18.641C33.2293 18.615 35.2025 19.9392 35.2025 22.0163C35.2025 23.2886 34.1641 24.2492 32.6841 24.0934C32.4245 22.172 31.3599 21.1335 29.9839 21.1335ZM31.8001 31.5962C31.8001 29.0518 30.0085 27.7794 27.2305 28.117C27.3603 31.752 28.5027 33.829 29.9567 33.829C30.9173 33.829 31.8001 33.102 31.8001 31.5962Z"></path></g><g class=""><path d="M15.2202 33.6478V21.5486C12.6238 22.1198 12.0526 20.9774 12.3382 19.8349C13.896 19.5753 17.9464 18.6406 19.4783 18.1992V33.7516L22.3083 34.3228C22.3083 35.3354 21.7112 35.9326 20.6467 35.9326C19.7639 35.9326 17.7127 35.8806 16.7261 35.8806C15.1942 35.8806 12.3902 35.9326 12.3902 35.9326C12.3123 35.7248 12.2863 35.5172 12.2863 35.3354C12.2863 34.842 12.494 34.3488 13.1691 34.167L15.2202 33.6478Z"></path><path d="M35.8146 30.376C35.8406 34.2966 33.2182 36.3478 28.8044 36.3478C25.5328 36.3738 23.248 35.0496 23.248 32.9724C23.248 31.7002 24.2866 30.7396 25.7666 30.8954C26.0262 32.9984 27.4282 33.8552 28.8822 33.8552C30.2584 33.8552 31.3228 32.9984 31.3228 31.7002C31.3228 29.3634 29.038 28.247 24.5722 28.7404V19.0039H30.3102C31.6864 19.0039 32.9586 18.926 34.2048 18.6924C34.4384 19.0818 34.5942 19.6011 34.5942 20.1463C34.5942 21.6782 33.4 23.0802 30.9852 23.0802C29.3756 23.0802 27.9734 22.8984 26.8052 22.7168V25.391C32.595 24.5082 35.8146 26.4036 35.8146 30.376Z"></path></g><g class=""><path d="M15.4272 33.6478V21.5486C12.8309 22.1198 12.2596 20.9774 12.5453 19.8349C14.1031 19.5753 18.1534 18.6406 19.6853 18.1992V33.7516L22.5154 34.3228C22.5154 35.3354 21.9182 35.9326 20.8537 35.9326C19.9709 35.9326 17.9198 35.8806 16.9331 35.8806C15.4013 35.8806 12.5972 35.9326 12.5972 35.9326C12.5193 35.7248 12.4933 35.5172 12.4933 35.3354C12.4933 34.842 12.701 34.3488 13.3761 34.167L15.4272 33.6478ZM15.4272 33.6478V21.5486C12.8309 22.1198 12.2596 20.9774 12.5453 19.8349C14.1031 19.5753 18.1534 18.6406 19.6853 18.1992V33.7516L22.5154 34.3228C22.5154 35.3354 21.9182 35.9326 20.8537 35.9326C19.9709 35.9326 17.9198 35.8806 16.9331 35.8806C15.4013 35.8806 12.5972 35.9326 12.5972 35.9326C12.5193 35.7248 12.4933 35.5172 12.4933 35.3354C12.4933 34.842 12.701 34.3488 13.3761 34.167L15.4272 33.6478ZM15.4272 33.6478V21.5486C12.8309 22.1198 12.2596 20.9774 12.5453 19.8349C14.1031 19.5753 18.1534 18.6406 19.6853 18.1992"></path><path d="M36.0845 29.9609C36.8115 30.9735 36.6297 33.3103 34.0853 33.1285L34.1111 33.5699C34.2411 35.8029 33.1505 36.3481 31.5927 36.3481C30.9695 36.3481 30.2425 36.1923 29.6455 35.8807L29.7233 33.0507H23.5959L22.791 30.8177C24.193 27.2867 27.6981 21.263 29.7493 18.7705L34.0853 19.4456V30.2205C34.8641 30.2205 35.4353 30.1427 36.0845 29.9609ZM29.8281 22.1201C28.4521 24.0673 26.1673 28.2475 25.3105 30.3507H29.8281V22.1201Z"></path></g><g class=""><path d="M15.2261 33.6478V21.5486C12.6297 22.1198 12.0585 20.9774 12.3441 19.8349C13.9019 19.5753 17.9523 18.6406 19.4842 18.1992V33.7516L22.3142 34.3228C22.3142 35.3354 21.717 35.9326 20.6525 35.9326C19.7698 35.9326 17.7186 35.8806 16.732 35.8806C15.2001 35.8806 12.396 35.9326 12.396 35.9326C12.3181 35.7248 12.2922 35.5172 12.2922 35.3354C12.2922 34.842 12.4999 34.3488 13.1749 34.167L15.2261 33.6478Z"></path><path d="M29.9543 24.3266C29.9543 22.8208 29.0975 21.8342 27.7475 21.8342C26.4493 21.8342 26.0079 22.7688 26.0079 24.2488V24.5084C25.8521 24.5344 25.7223 24.5604 25.5665 24.5604C24.6317 24.5604 23.9568 23.7814 23.9568 22.4572C23.9568 20.4321 25.8261 18.6406 29.3831 18.6406C32.5507 18.6406 34.5759 20.2504 34.5759 22.8728C34.5759 24.846 32.8883 26.1442 31.2267 26.4816C34.3423 26.8192 35.6405 28.5848 35.6405 30.7398C35.6405 34.4266 32.8623 36.348 28.5783 36.348H28.4745C25.2549 36.348 22.9961 35.0238 22.9961 32.9726C22.9961 31.8042 23.8789 30.8696 25.2029 30.8696C25.3069 30.8696 25.4107 30.8956 25.5145 30.8956C25.7741 32.9986 27.2281 33.8554 28.6821 33.8554C30.0841 33.8554 31.0709 32.9986 31.0709 31.7004V31.6486C31.0709 29.6234 29.3313 29.4156 26.7089 29.156L26.2935 26.7154C28.7341 26.4298 29.9543 25.7288 29.9543 24.3266Z"></path></g><g class=""><path d="M15.3354 33.6478V21.5486C12.7391 22.1198 12.1679 20.9774 12.4535 19.8349C14.0113 19.5753 18.0616 18.6406 19.5935 18.1992V33.7516L22.4236 34.3228C22.4236 35.3354 21.8264 35.9326 20.7619 35.9326C19.8791 35.9326 17.828 35.8806 16.8413 35.8806C15.3095 35.8806 12.5054 35.9326 12.5054 35.9326C12.4275 35.7248 12.4015 35.5172 12.4015 35.3354C12.4015 34.842 12.6092 34.3488 13.2843 34.167L15.3354 33.6478Z"></path><path d="M30.1147 24.3266C30.1147 22.8208 29.2577 21.8342 27.9077 21.8342C26.5315 21.8342 26.1161 22.8728 26.1681 24.5084C24.9997 24.768 24.1169 23.9892 24.1169 22.4572C24.1169 20.4321 25.9345 18.6406 29.6733 18.6406C32.8409 18.6406 35.0216 20.5879 35.0216 23.0804C35.0216 25.6768 33.6196 27.4942 30.0107 30.7658L28.0635 32.5312C31.6725 32.6092 34.061 32.4274 35.1774 31.7524C35.6448 32.1938 35.9044 32.8168 35.9044 33.5958C35.9044 35.1796 34.113 36.0884 32.3215 36.0884C30.5819 36.0884 23.5457 35.8806 23.5457 35.8806L23.1562 34.4006L26.5835 30.3762C28.9203 27.6242 30.1147 26.1442 30.1147 24.3266Z"></path></g><g class=""><path d="M16.271 33.6478V21.5486C13.6746 22.1198 13.1034 20.9774 13.389 19.8349C14.9468 19.5753 18.9972 18.6406 20.5291 18.1992V33.7516L23.3591 34.3228C23.3591 35.3354 22.762 35.9326 21.6974 35.9326C20.8147 35.9326 18.7635 35.8806 17.7769 35.8806C16.245 35.8806 13.4409 35.9326 13.4409 35.9326C13.3631 35.7248 13.3371 35.5172 13.3371 35.3354C13.3371 34.842 13.5448 34.3488 14.2199 34.167L16.271 33.6478ZM16.271 33.6478V21.5486C13.6746 22.1198 13.1034 20.9774 13.389 19.8349C14.9468 19.5753 18.9972 18.6406 20.5291 18.1992V33.7516L23.3591 34.3228C23.3591 35.3354 22.762 35.9326 21.6974 35.9326C20.8147 35.9326 18.7635 35.8806 17.7769 35.8806C16.245 35.8806 13.4409 35.9326 13.4409 35.9326C13.3631 35.7248 13.3371 35.5172 13.3371 35.3354C13.3371 34.842 13.5448 34.3488 14.2199 34.167L16.271 33.6478Z"></path><path d="M27.8705 21.5486V33.6478L25.8195 34.167C25.1443 34.3488 24.9367 34.842 24.9367 35.3354C24.9367 35.5172 24.9627 35.7248 25.0405 35.9326C25.0405 35.9326 27.8447 35.8806 29.3765 35.8806C30.3631 35.8806 32.4143 35.9326 33.2971 35.9326C34.3615 35.9326 34.9587 35.3354 34.9587 34.3228L32.1287 33.7516V18.1992C30.5967 18.6406 26.5465 19.5753 24.9887 19.8349C24.7029 20.9774 25.2743 22.1198 27.8705 21.5486Z"></path></g><g class=""><path d="M15.1069 33.6634V21.5642C12.5105 22.1354 11.9394 20.993 12.2249 19.8506C13.7828 19.5909 17.8331 18.6562 19.365 18.2148V33.7672L22.195 34.3384C22.195 35.351 21.5979 35.9482 20.5334 35.9482C19.6506 35.9482 17.5995 35.8962 16.6128 35.8962C15.081 35.8962 12.2769 35.9482 12.2769 35.9482C12.199 35.7404 12.173 35.5328 12.173 35.351C12.173 34.8576 12.3807 34.3644 13.0558 34.1826L15.1069 33.6634Z"></path><path d="M29.7253 18.3271C33.7575 18.3271 36.0495 20.8171 36.0495 26.8192C36.0495 32.664 33.5877 36.2024 29.1523 36.2024C25.1201 36.2024 22.8281 33.7126 22.8281 27.7104C22.8281 21.8655 25.2899 18.3271 29.7253 18.3271ZM29.1947 20.8957C27.2847 20.8957 26.6269 23.3595 26.6269 26.5834C26.6269 30.3576 27.6879 33.6076 29.6829 33.6076C31.5929 33.6076 32.2507 31.1702 32.2507 27.9462C32.2507 24.1721 31.1895 20.8957 29.1947 20.8957Z"></path></g><g class="NotionCalendarIcon_current__Iwe8x"><path d="M23.7219 33.873C25.4332 33.7834 26.2632 32.2578 26.414 29.676C21.988 31.546 18.0365 29.569 17.8231 25.4983C17.6152 21.5313 19.9971 18.8586 23.8604 18.6561C28.1126 18.4332 30.4933 21.1944 30.7419 25.9393C31.0599 32.0064 28.7282 36.1326 23.6204 36.4002C20.3534 36.5714 18.3136 35.3524 18.2049 33.2782C18.1383 32.0076 19.1251 30.994 20.6112 31.072C20.9805 33.1586 22.3477 33.945 23.7219 33.873ZM21.8015 23.5219C21.9346 26.0629 23.6863 28.233 26.4472 27.8282C26.4404 27.6986 26.4308 27.5172 26.4226 27.3616C26.2242 23.5761 24.8998 21.1236 23.3699 21.2037C22.4106 21.254 21.7226 22.0181 21.8015 23.5219Z"></path></g><g class=""><path d="M30.7242 31.1032C30.7242 34.193 27.972 36.348 24.0774 36.348C19.5598 36.348 17.5605 34.2448 17.5605 31.9082C17.5605 29.9348 18.8068 28.377 20.7022 27.5982C18.9626 26.1702 18.4173 25.0278 18.4173 23.5218C18.4173 20.9774 20.3646 18.6406 24.415 18.6406C27.8942 18.6406 29.7896 20.4062 29.7896 22.613C29.7896 24.5864 28.6212 25.7288 27.297 26.5336C29.8934 28.1434 30.7242 29.3896 30.7242 31.1032ZM26.4402 23.2882C26.4402 21.8861 25.4796 21.0033 24.0256 21.0033C22.7274 21.0033 22.234 21.6784 22.234 22.4572C22.234 23.1584 22.4937 23.6776 23.7399 24.4306L25.6612 25.599C26.2324 24.82 26.4402 24.171 26.4402 23.2882ZM26.3104 32.4014C26.3104 31.6486 25.817 31.1032 24.1554 30.0648L22.3898 28.9482C21.6109 29.7532 21.3253 30.506 21.3253 31.4408C21.3253 33.0766 22.4937 33.8554 24.337 33.8554C25.5574 33.8554 26.3104 33.3102 26.3104 32.4014Z"></path></g><g class=""><path d="M30.7169 19.0036C28.7435 22.6125 25.3163 30.7133 23.8364 36.3475H23.6287C21.6294 36.3475 20.1755 35.2051 20.1755 33.2837C20.1755 32.2971 20.513 31.1287 21.24 29.8045C21.7852 28.8179 22.5382 27.7793 23.2652 26.7667L26.1731 22.6905C25.1345 22.8463 23.369 23.0539 21.6294 23.0539C19.6562 23.0539 18.332 22.0154 18.332 20.3018C18.332 19.8604 18.4359 19.3411 18.6436 18.7959C20.0197 19.0036 23.0834 19.0815 25.8357 19.0815C27.7569 19.0815 29.7561 19.0555 30.7169 19.0036Z"></path></g><g class=""><path d="M24.8745 21.1316C22.9271 21.1316 22.2521 23.001 22.1482 26.3244C26.7179 24.6106 30.7423 26.0128 30.7423 30.089C30.7423 33.8278 28.2237 36.3464 24.4331 36.3464C19.474 36.3464 17.7344 32.8152 17.7344 28.5312C17.7344 22.7412 20.2269 18.639 24.8485 18.639C28.1199 18.6131 30.0931 19.9372 30.0931 22.0143C30.0931 23.2866 29.0545 24.2472 27.5747 24.0914C27.3151 22.17 26.2505 21.1316 24.8745 21.1316ZM26.6919 31.595C26.6919 29.0506 24.9003 27.7782 22.1222 28.1158C22.2521 31.7508 23.3945 33.8278 24.8485 33.8278C25.8091 33.8278 26.6919 33.1008 26.6919 31.595Z"></path></g><g class=""><path d="M30.3146 30.378C30.3406 34.2986 27.7182 36.3498 23.3043 36.3498C20.0329 36.3758 17.748 35.0516 17.748 32.9744C17.748 31.7022 18.7866 30.7416 20.2665 30.8974C20.5262 33.0004 21.9282 33.8572 23.3822 33.8572C24.7582 33.8572 25.8228 33.0004 25.8228 31.7022C25.8228 29.3654 23.538 28.249 19.0722 28.7424V19.0059H24.8102C26.1862 19.0059 27.4586 18.928 28.7048 18.6943C28.9384 19.0838 29.0942 19.6031 29.0942 20.1483C29.0942 21.6802 27.9 23.0822 25.4852 23.0822C23.8755 23.0822 22.4735 22.9004 21.3051 22.7188V25.393C27.095 24.5102 30.3146 26.4056 30.3146 30.378Z"></path></g><g class=""><path d="M29.983 29.9589C30.71 30.9715 30.5282 33.3083 27.9838 33.1265L28.0096 33.5679C28.1396 35.8009 27.049 36.3461 25.4912 36.3461C24.868 36.3461 24.141 36.1903 23.5439 35.8787L23.6218 33.0487H17.4943L16.6895 30.8157C18.0915 27.2847 21.5966 21.2611 23.6478 18.7686L27.9838 19.4436V30.2185C28.7626 30.2185 29.3338 30.1407 29.983 29.9589ZM23.7257 22.1179C22.3496 24.0651 20.0647 28.2453 19.2079 30.3485H23.7257V22.1179Z"></path></g><g class=""><path d="M24.6049 24.3247C24.6049 22.8189 23.748 21.8322 22.3979 21.8322C21.0997 21.8322 20.6583 22.7669 20.6583 24.2469V24.5065C20.5025 24.5325 20.3727 24.5585 20.2169 24.5585C19.2822 24.5585 18.6071 23.7795 18.6071 22.4553C18.6071 20.4302 20.4765 18.6387 24.0337 18.6387C27.2012 18.6387 29.2264 20.2484 29.2264 22.8709C29.2264 24.8441 27.5386 26.1423 25.877 26.4797C28.9926 26.8173 30.2908 28.5829 30.2908 30.7378C30.2908 34.4246 27.5126 36.346 23.2287 36.346H23.1249C19.9053 36.346 17.6465 35.0218 17.6465 32.9706C17.6465 31.8022 18.5292 30.8676 19.8534 30.8676C19.9573 30.8676 20.0611 30.8936 20.165 30.8936C20.4246 32.9966 21.8786 33.8534 23.3326 33.8534C24.7346 33.8534 25.7212 32.9966 25.7212 31.6984V31.6466C25.7212 29.6215 23.9817 29.4136 21.3593 29.1541L20.9439 26.7135C23.3845 26.4279 24.6049 25.7269 24.6049 24.3247Z"></path></g><g class=""><path d="M24.6379 24.3247C24.6379 22.8189 23.7812 21.8322 22.4311 21.8322C21.055 21.8322 20.6396 22.8709 20.6915 24.5065C19.5231 24.7661 18.6403 23.9873 18.6403 22.4553C18.6403 20.4302 20.4578 18.6387 24.1967 18.6387C27.3643 18.6387 29.5451 20.586 29.5451 23.0785C29.5451 25.6749 28.1431 27.4923 24.5341 30.7638L22.5869 32.5292C26.1959 32.6072 28.5845 32.4254 29.7009 31.7504C30.1683 32.1918 30.4279 32.8148 30.4279 33.5938C30.4279 35.1776 28.6365 36.0864 26.8449 36.0864C25.1053 36.0864 18.0691 35.8786 18.0691 35.8786L17.6797 34.3986L21.1069 30.3742C23.4437 27.6223 24.6379 26.1423 24.6379 24.3247Z"></path></g><g class=""><path d="M21.9975 33.6458V21.5466C19.4012 22.1178 18.83 20.9754 19.1156 19.833C20.6734 19.5733 24.7238 18.6386 26.2556 18.1973V33.7496L29.0858 34.3208C29.0858 35.3334 28.4886 35.9306 27.424 35.9306C26.5412 35.9306 24.4902 35.8786 23.5035 35.8786C21.9716 35.8786 19.1675 35.9306 19.1675 35.9306C19.0896 35.7228 19.0637 35.5152 19.0637 35.3334C19.0637 34.84 19.2714 34.3468 19.9464 34.165L21.9975 33.6458Z"></path></g></g></g></svg>