<svg version="1.1" xmlns="http://www.w3.org/2000/svg" viewBox="0 0 16 16" style="width:20px;height:18px;fill:#0009;"><defs><clipPath id="a"><path d="M0 0h16v16H0z"></path></clipPath></defs><path d="M14.81 0H1.18C.53 0 0 .52 0 1.15v13.69C0 15.48.53 16 1.18 16h13.63c.65 0 1.18-.52 1.18-1.15V1.15c0-.64-.53-1.15-1.18-1.15ZM4.75 13.63H2.38V5.99h2.37v7.64ZM3.56 4.96c-.76 0-1.38-.62-1.38-1.37s.62-1.37 1.38-1.37 1.37.62 1.37 1.37-.62 1.37-1.37 1.37Zm10.07 8.67h-2.37V9.92c0-.88-.02-2.02-1.23-2.02s-1.42.97-1.42 1.96v3.77H6.24V5.99h2.27v1.04h.03c.32-.6 1.09-1.23 2.24-1.23 2.4 0 2.85 1.58 2.85 3.64v4.19Z" style="clip-path:url(#a)"></path></svg>