<svg version="1.1" xmlns="http://www.w3.org/2000/svg" class="target" viewBox="0 0 49 49" style="width:100%;height:100%;display:block;fill:inherit;flex-shrink:0"><path clip-rule="evenodd" d="m48.2037 9.1569-6.1556 6.2475-.0306-.0613c-3.0319 3.0932-5.2982 3.7975-9.7082 3.3382l-3.1543 3.185c1.1025 2.0212.8268 4.6244-.8575 6.3394-2.0519 2.1131-5.4513 2.1131-7.5644.0612s-2.1438-5.4512-.0613-7.5644c1.6844-1.715 4.2569-2.0212 6.3088-.9494l3.1544-3.185c-.5207-4.41.1225-6.6762 3.1543-9.76933l6.1557-6.2475 1.715 7.04375zm-14.5467 12.7706h.8269v.0612c1.1331 0 2.1438-.1225 3.0931-.3369.2144.9494.3369 1.8988.3369 2.9094 0 7.4113-6.0025 13.4138-13.4137 13.4138-7.4113 0-13.4138-6.0025-13.4138-13.4138 0-7.4112 6.0025-13.4137 13.4138-13.4137.9187 0 1.8375.0918 2.695.2756-.245 1.1944-.3369 2.4806-.245 3.92-.7963-.2144-1.5925-.3675-2.45-.3675-5.2675 0-9.555 4.2875-9.555 9.555s4.2875 9.555 9.555 9.555 9.555-4.2875 9.555-9.555c0-.9188-.1532-1.7763-.3982-2.6031zm8.483-2.5419c.7044-.5206 1.3781-1.1331 2.0825-1.8375l1.5925-1.6231c1.0413 2.6644 1.6538 5.5431 1.6538 8.575 0 12.6787-10.2901 22.9688-22.9688 22.9688-12.6788 0-22.96875-10.2901-22.96875-22.9688 0-12.6788 10.28995-22.96875 22.96875-22.96875 2.8787 0 5.635.55125 8.1769 1.53125l-1.5619 1.5925c-.7044.70438-1.2863 1.40875-1.8069 2.11313-1.5312-.39813-3.1544-.64313-4.8081-.64313-10.1369 0-18.375 8.2381-18.375 18.375s8.2381 18.375 18.375 18.375 18.375-8.2381 18.375-18.375c0-1.7763-.2756-3.4913-.735-5.1144z" fill="currentColor" fill-rule="evenodd"></path></svg>