<svg version="1.1" xmlns="http://www.w3.org/2000/svg"  viewBox="0 0 16 16"><path d="M8 .5C3.86.5.5 3.86.5 8s3.36 7.5 7.5 7.5 7.5-3.36 7.5-7.5S12.14.5 8 .5Zm5.39 4.94h-2.33c-.31-1.23-.82-2.36-1.48-3.31 1.65.49 3.05 1.74 3.81 3.31ZM14 8c0 .49-.08.97-.2 1.44h-2.53c.06-.47.1-.95.1-1.44s-.04-.97-.1-1.44h2.53c.12.47.2.94.2 1.44ZM2 8c0-.49.08-.97.2-1.44h2.53c-.06.47-.1.95-.1 1.44s.04.97.1 1.44H2.2C2.08 8.97 2 8.5 2 8Zm3.88 0c0-.49.04-.97.1-1.44h4.05c.06.47.1.95.1 1.44s-.04.96-.1 1.44H5.98c-.06-.47-.1-.95-.1-1.44Zm3.94-2.56H6.17c.34-1.38.95-2.62 1.82-3.56.87.94 1.49 2.18 1.82 3.56ZM6.43 2.12c-.66.95-1.17 2.08-1.48 3.31H2.62c.76-1.58 2.16-2.82 3.81-3.31Zm-3.82 8.44h2.33c.31 1.23.82 2.36 1.48 3.31-1.65-.49-3.05-1.74-3.81-3.31Zm3.56 0h3.65c-.34 1.4-.95 2.67-1.83 3.61-.88-.94-1.49-2.21-1.83-3.61Zm3.4 3.32c.66-.95 1.17-2.08 1.48-3.31h2.33c-.76 1.58-2.16 2.82-3.81 3.31Z" fill="currentColor"></path></svg>